# Blender v2.81 (sub 16) OBJ File: 'second floor.blend'
# www.blender.org
mtllib console.mtl
v 43.539688 -2.736316 -4.384155
v 43.539688 3.536157 -4.384155
v 43.539688 -2.736316 -6.384155
v 43.539688 3.536157 -6.384155
v 53.338203 -2.736316 -4.384155
v 53.338203 3.536157 -4.384155
v 53.338203 -2.736316 -6.384155
v 53.338203 3.536157 -6.384155
v 43.539688 5.076406 -4.384155
v 43.539688 5.076406 -6.384155
v 53.338203 5.076406 -6.384155
v 53.338203 5.076406 -4.384155
v 43.539688 3.536157 -7.177405
v 53.338203 3.536157 -7.177405
v 43.539688 5.076406 -7.177405
v 53.338203 5.076406 -7.177405
vt 0.284622 0.000247
vt 0.284622 0.638835
vt 0.081006 0.638835
vt 0.081006 0.000247
vt 0.977708 0.000247
vt 0.977708 0.638835
vt 0.774092 0.638835
vt 0.774092 0.000247
vt 0.488731 0.000247
vt 0.488731 0.638835
vt 0.285115 0.638835
vt 0.285115 0.000247
vt 0.569983 0.795644
vt 0.569983 0.157056
vt 0.773599 0.157056
vt 0.773599 0.795644
vt 0.000247 0.999753
vt 0.000247 0.796137
vt 0.203863 0.796137
vt 0.203863 0.999753
vt 0.408465 0.796137
vt 0.612081 0.796137
vt 0.612081 0.876897
vt 0.408465 0.876897
vt 0.977708 0.842944
vt 0.774092 0.842944
vt 0.774092 0.639328
vt 0.977708 0.639328
vt 0.488731 0.795644
vt 0.285115 0.795644
vt 0.284622 0.795644
vt 0.081006 0.795644
vt 0.569983 0.000247
vt 0.773599 0.000247
vt 0.204356 0.796137
vt 0.407972 0.796137
vt 0.407972 0.952947
vt 0.204356 0.952947
vt 0.000247 0.795644
vt 0.000247 0.638835
vt 0.569490 0.638835
vt 0.569490 0.795644
vt 0.977708 0.923703
vt 0.774092 0.923703
vn -1.0000 0.0000 0.0000
vn 0.0000 0.0000 -1.0000
vn 1.0000 0.0000 0.0000
vn 0.0000 0.0000 1.0000
vn 0.0000 -1.0000 0.0000
vn 0.0000 1.0000 0.0000
usemtl Material.004
s off
f 1/1/1 2/2/1 4/3/1 3/4/1
f 3/5/2 4/6/2 8/7/2 7/8/2
f 7/9/3 8/10/3 6/11/3 5/12/3
f 5/13/4 6/14/4 2/15/4 1/16/4
f 3/17/5 7/18/5 5/19/5 1/20/5
f 8/21/5 4/22/5 13/23/5 14/24/5
f 11/25/6 10/26/6 9/27/6 12/28/6
f 6/11/3 8/10/3 11/29/3 12/30/3
f 4/3/1 2/2/1 9/31/1 10/32/1
f 2/15/4 6/14/4 12/33/4 9/34/4
f 14/35/2 13/36/2 15/37/2 16/38/2
f 4/3/1 10/32/1 15/39/1 13/40/1
f 11/29/3 8/10/3 14/41/3 16/42/3
f 10/26/6 11/25/6 16/43/6 15/44/6
