# Blender v2.81 (sub 16) OBJ File: 'Desk.blend'
# www.blender.org
mtllib Desk.mtl
v 0.800000 0.000000 -1.850000
v 0.800000 2.000000 -1.850000
v 0.847553 0.000000 -1.815451
v 0.847553 2.000000 -1.815451
v 0.829389 0.000000 -1.759549
v 0.829389 2.000000 -1.759549
v 0.770611 0.000000 -1.759549
v 0.770611 2.000000 -1.759549
v 0.752447 0.000000 -1.815451
v 0.752447 2.000000 -1.815451
v -1.000000 1.980000 2.000000
v -1.000000 2.020000 2.000000
v -1.000000 1.980000 -2.000000
v -1.000000 2.020000 -2.000000
v 1.000000 1.980000 2.000000
v 1.000000 2.020000 2.000000
v 1.000000 1.980000 -2.000000
v 1.000000 2.020000 -2.000000
v -0.800000 0.000000 -1.850000
v -0.800000 2.000000 -1.850000
v -0.752447 0.000000 -1.815451
v -0.752447 2.000000 -1.815451
v -0.770611 0.000000 -1.759549
v -0.770611 2.000000 -1.759549
v -0.829389 0.000000 -1.759549
v -0.829389 2.000000 -1.759549
v -0.847553 0.000000 -1.815451
v -0.847553 2.000000 -1.815451
v 0.800000 0.000000 1.750000
v 0.800000 2.000000 1.750000
v 0.847553 0.000000 1.784549
v 0.847553 2.000000 1.784549
v 0.829389 0.000000 1.840450
v 0.829389 2.000000 1.840450
v 0.770611 0.000000 1.840450
v 0.770611 2.000000 1.840450
v 0.752447 0.000000 1.784549
v 0.752447 2.000000 1.784549
v -0.800000 0.000000 1.750000
v -0.800000 2.000000 1.750000
v -0.752447 0.000000 1.784549
v -0.752447 2.000000 1.784549
v -0.770611 0.000000 1.840450
v -0.770611 2.000000 1.840450
v -0.829389 0.000000 1.840450
v -0.829389 2.000000 1.840450
v -0.847553 0.000000 1.784549
v -0.847553 2.000000 1.784549
vt 1.000000 0.500000
vt 1.000000 1.000000
vt 0.800000 1.000000
vt 0.800000 0.500000
vt 0.600000 1.000000
vt 0.600000 0.500000
vt 0.400000 1.000000
vt 0.400000 0.500000
vt 0.478254 0.324164
vt 0.250000 0.490000
vt 0.021746 0.324164
vt 0.108932 0.055836
vt 0.391068 0.055836
vt 0.200000 1.000000
vt 0.200000 0.500000
vt 0.000000 1.000000
vt 0.000000 0.500000
vt 0.750000 0.490000
vt 0.978254 0.324164
vt 0.891068 0.055836
vt 0.608932 0.055836
vt 0.521746 0.324164
vt 0.375000 0.000000
vt 0.625000 0.000000
vt 0.625000 0.250000
vt 0.375000 0.250000
vt 0.625000 0.500000
vt 0.375000 0.500000
vt 0.625000 0.750000
vt 0.375000 0.750000
vt 0.625000 1.000000
vt 0.375000 1.000000
vt 0.125000 0.500000
vt 0.125000 0.750000
vt 0.875000 0.500000
vt 0.875000 0.750000
vt 1.000000 0.500000
vt 1.000000 1.000000
vt 0.800000 1.000000
vt 0.800000 0.500000
vt 0.600000 1.000000
vt 0.600000 0.500000
vt 0.400000 1.000000
vt 0.400000 0.500000
vt 0.478254 0.324164
vt 0.250000 0.490000
vt 0.021746 0.324164
vt 0.108932 0.055836
vt 0.391068 0.055836
vt 0.200000 1.000000
vt 0.200000 0.500000
vt 0.000000 1.000000
vt 0.000000 0.500000
vt 0.750000 0.490000
vt 0.978254 0.324164
vt 0.891068 0.055836
vt 0.608932 0.055836
vt 0.521746 0.324164
vt 1.000000 0.500000
vt 1.000000 1.000000
vt 0.800000 1.000000
vt 0.800000 0.500000
vt 0.600000 1.000000
vt 0.600000 0.500000
vt 0.400000 1.000000
vt 0.400000 0.500000
vt 0.478254 0.324164
vt 0.250000 0.490000
vt 0.021746 0.324164
vt 0.108932 0.055836
vt 0.391068 0.055836
vt 0.200000 1.000000
vt 0.200000 0.500000
vt 0.000000 1.000000
vt 0.000000 0.500000
vt 0.750000 0.490000
vt 0.978254 0.324164
vt 0.891068 0.055836
vt 0.608932 0.055836
vt 0.521746 0.324164
vt 1.000000 0.500000
vt 1.000000 1.000000
vt 0.800000 1.000000
vt 0.800000 0.500000
vt 0.600000 1.000000
vt 0.600000 0.500000
vt 0.400000 1.000000
vt 0.400000 0.500000
vt 0.478254 0.324164
vt 0.250000 0.490000
vt 0.021746 0.324164
vt 0.108932 0.055836
vt 0.391068 0.055836
vt 0.200000 1.000000
vt 0.200000 0.500000
vt 0.000000 1.000000
vt 0.000000 0.500000
vt 0.750000 0.490000
vt 0.978254 0.324164
vt 0.891068 0.055836
vt 0.608932 0.055836
vt 0.521746 0.324164
vn 0.5878 0.0000 -0.8090
vn 0.9511 0.0000 0.3090
vn 0.0000 0.0000 1.0000
vn 0.0000 1.0000 0.0000
vn -0.9511 0.0000 0.3090
vn -0.5878 0.0000 -0.8090
vn 0.0000 -1.0000 0.0000
vn -1.0000 0.0000 0.0000
vn 0.0000 0.0000 -1.0000
vn 1.0000 0.0000 0.0000
usemtl Material.001
s off
f 1/1/1 2/2/1 4/3/1 3/4/1
f 3/4/2 4/3/2 6/5/2 5/6/2
f 5/6/3 6/5/3 8/7/3 7/8/3
f 4/9/4 2/10/4 10/11/4 8/12/4 6/13/4
f 7/8/5 8/7/5 10/14/5 9/15/5
f 9/15/6 10/14/6 2/16/6 1/17/6
f 1/18/7 3/19/7 5/20/7 7/21/7 9/22/7
f 11/23/8 12/24/8 14/25/8 13/26/8
f 13/26/9 14/25/9 18/27/9 17/28/9
f 17/28/10 18/27/10 16/29/10 15/30/10
f 15/30/3 16/29/3 12/31/3 11/32/3
f 13/33/7 17/28/7 15/30/7 11/34/7
f 18/27/4 14/35/4 12/36/4 16/29/4
f 19/37/1 20/38/1 22/39/1 21/40/1
f 21/40/2 22/39/2 24/41/2 23/42/2
f 23/42/3 24/41/3 26/43/3 25/44/3
f 22/45/4 20/46/4 28/47/4 26/48/4 24/49/4
f 25/44/5 26/43/5 28/50/5 27/51/5
f 27/51/6 28/50/6 20/52/6 19/53/6
f 19/54/7 21/55/7 23/56/7 25/57/7 27/58/7
f 29/59/1 30/60/1 32/61/1 31/62/1
f 31/62/2 32/61/2 34/63/2 33/64/2
f 33/64/3 34/63/3 36/65/3 35/66/3
f 32/67/4 30/68/4 38/69/4 36/70/4 34/71/4
f 35/66/5 36/65/5 38/72/5 37/73/5
f 37/73/6 38/72/6 30/74/6 29/75/6
f 29/76/7 31/77/7 33/78/7 35/79/7 37/80/7
f 39/81/1 40/82/1 42/83/1 41/84/1
f 41/84/2 42/83/2 44/85/2 43/86/2
f 43/86/3 44/85/3 46/87/3 45/88/3
f 42/89/4 40/90/4 48/91/4 46/92/4 44/93/4
f 45/88/5 46/87/5 48/94/5 47/95/5
f 47/95/6 48/94/6 40/96/6 39/97/6
f 39/98/7 41/99/7 43/100/7 45/101/7 47/102/7
