# Blender v2.81 (sub 16) OBJ File: 'Elixier.blend'
# www.blender.org
mtllib Elixier.mtl
v 0.000000 0.757877 -0.192529
v 0.000000 1.757877 -0.192529
v 0.192529 0.757877 0.000000
v 0.192529 1.757877 0.000000
v -0.000000 0.757877 0.192529
v -0.000000 1.757877 0.192529
v -0.192529 0.757877 -0.000000
v -0.192529 1.757877 -0.000000
v 0.000000 1.743132 0.247487
v 0.000000 1.923132 0.247487
v -0.247487 1.743132 0.000000
v -0.247487 1.923132 0.000000
v 0.247487 1.743132 0.000000
v 0.247487 1.923132 0.000000
v 0.000000 1.743132 -0.247487
v 0.000000 1.923132 -0.247487
v 0.000000 0.000271 -1.000000
v 1.000000 0.000271 0.000000
v -0.000000 0.000271 1.000000
v -1.000000 0.000271 -0.000000
v 0.000000 1.300271 0.000000
vt 0.853305 0.000274
vt 0.853305 0.117233
vt 0.770602 0.117233
vt 0.770602 0.000274
vt 0.296691 0.694078
vt 0.296691 0.811037
vt 0.213989 0.811037
vt 0.213989 0.694078
vt 0.853305 0.117780
vt 0.853305 0.200482
vt 0.770602 0.200482
vt 0.770602 0.117780
vt 0.297238 0.777328
vt 0.414198 0.777328
vt 0.414198 0.860031
vt 0.297238 0.860031
vt 0.297238 0.694078
vt 0.414198 0.694078
vt 0.414198 0.776781
vt 0.297238 0.776781
vt 0.853305 0.201029
vt 0.853305 0.283732
vt 0.770602 0.283732
vt 0.770602 0.201029
vt 0.213442 0.822536
vt 0.213442 0.843588
vt 0.107131 0.843588
vt 0.107131 0.822536
vt 0.107131 0.821989
vt 0.107131 0.800936
vt 0.213442 0.800936
vt 0.213442 0.821989
vt 0.000274 0.843588
vt 0.000274 0.822536
vt 0.106584 0.822536
vt 0.106584 0.843588
vt 0.106584 0.800936
vt 0.106584 0.821989
vt 0.000274 0.821989
vt 0.000274 0.800936
vt 0.000274 0.694078
vt 0.106584 0.694078
vt 0.106584 0.800389
vt 0.000274 0.800389
vt 0.107131 0.800389
vt 0.107131 0.694078
vt 0.213442 0.694078
vt 0.213442 0.800389
vt 0.498440 0.999726
vt 0.430380 0.666940
vt 0.770055 0.666940
vt 0.770055 0.333060
vt 0.430380 0.333060
vt 0.498440 0.000274
vt 0.429833 0.430380
vt 0.215053 0.693531
vt 0.000274 0.430380
vt 0.430380 0.333607
vt 0.770055 0.333607
vt 0.701995 0.666393
vt 0.000274 0.000274
vt 0.429833 0.000274
vt 0.429833 0.429833
vt 0.000274 0.429833
vn 0.7071 0.0000 -0.7071
vn 0.7071 0.0000 0.7071
vn 0.0000 1.0000 0.0000
vn -0.7071 0.0000 0.7071
vn -0.7071 0.0000 -0.7071
vn 0.0000 -1.0000 0.0000
vn 0.6212 0.4778 -0.6212
vn 0.6212 0.4778 0.6212
vn -0.6212 0.4778 0.6212
vn -0.6212 0.4778 -0.6212
usemtl None
s off
f 1/1/1 2/2/1 4/3/1 3/4/1
f 3/5/2 4/6/2 6/7/2 5/8/2
f 4/9/3 2/10/3 8/11/3 6/12/3
f 5/13/4 6/14/4 8/15/4 7/16/4
f 7/17/5 8/18/5 2/19/5 1/20/5
f 1/21/6 3/22/6 5/23/6 7/24/6
f 9/25/4 10/26/4 12/27/4 11/28/4
f 11/29/5 12/30/5 16/31/5 15/32/5
f 15/33/1 16/34/1 14/35/1 13/36/1
f 13/37/2 14/38/2 10/39/2 9/40/2
f 11/41/6 15/42/6 13/43/6 9/44/6
f 16/45/3 12/46/3 10/47/3 14/48/3
f 17/49/7 21/50/7 18/51/7
f 18/52/8 21/53/8 19/54/8
f 19/55/9 21/56/9 20/57/9
f 20/58/10 21/59/10 17/60/10
f 17/61/6 18/62/6 19/63/6 20/64/6
