# Blender v2.81 (sub 16) OBJ File: 'Pipe.blend'
# www.blender.org
mtllib Pipe.mtl
v 0.000000 1.200000 2.500000
v 0.000000 1.200000 3.500000
v 1.039231 0.600000 2.500000
v 1.039231 0.600000 3.500000
v 1.039230 -0.600000 2.500000
v 1.039230 -0.600000 3.500000
v -0.000000 -1.200000 2.500000
v -0.000000 -1.200000 3.500000
v -1.039231 -0.600000 2.500000
v -1.039231 -0.600000 3.500000
v -1.039231 0.600000 2.500000
v -1.039231 0.600000 3.500000
v 0.000000 1.000000 -3.000000
v 0.000000 1.000000 3.000000
v 0.866025 0.500000 -3.000000
v 0.866025 0.500000 3.000000
v 0.866025 -0.500000 -3.000000
v 0.866025 -0.500000 3.000000
v -0.000000 -1.000000 -3.000000
v -0.000000 -1.000000 3.000000
v -0.866025 -0.500000 -3.000000
v -0.866025 -0.500000 3.000000
v -0.866025 0.500000 -3.000000
v -0.866025 0.500000 3.000000
v 0.000000 1.200000 -3.500000
v 0.000000 1.200000 -2.500000
v 1.039231 0.600000 -3.500000
v 1.039231 0.600000 -2.500000
v 1.039230 -0.600000 -3.500000
v 1.039230 -0.600000 -2.500000
v -0.000000 -1.200000 -3.500000
v -0.000000 -1.200000 -2.500000
v -1.039231 -0.600000 -3.500000
v -1.039231 -0.600000 -2.500000
v -1.039231 0.600000 -3.500000
v -1.039231 0.600000 -2.500000
vt 0.676983 0.000362
vt 0.676983 0.155981
vt 0.599173 0.155981
vt 0.599173 0.000362
vt 0.698555 0.417516
vt 0.698555 0.573135
vt 0.620746 0.573135
vt 0.620746 0.417516
vt 0.576712 0.312323
vt 0.576712 0.156704
vt 0.654521 0.156704
vt 0.654521 0.312323
vt 0.619299 0.651668
vt 0.463680 0.651668
vt 0.463680 0.573858
vt 0.619299 0.573858
vt 0.462956 0.195609
vt 0.462956 0.273418
vt 0.395571 0.312323
vt 0.328186 0.273418
vt 0.328186 0.195609
vt 0.395571 0.156704
vt 0.463680 0.652391
vt 0.619299 0.652391
vt 0.619299 0.730200
vt 0.463680 0.730200
vt 0.405996 0.469389
vt 0.405996 0.625008
vt 0.328186 0.625008
vt 0.328186 0.469389
vt 0.463680 0.117076
vt 0.463680 0.039266
vt 0.531065 0.000362
vt 0.598450 0.039266
vt 0.598450 0.117076
vt 0.531065 0.155981
vt 0.934073 0.999638
vt 0.000362 0.999638
vt 0.000362 0.934797
vt 0.934073 0.934797
vt 0.131492 0.934073
vt 0.131492 0.000362
vt 0.196333 0.000362
vt 0.196333 0.934073
vt 0.065927 0.934073
vt 0.065927 0.000362
vt 0.130768 0.000362
vt 0.130768 0.934073
vt 0.197057 0.934073
vt 0.197057 0.000362
vt 0.261898 0.000362
vt 0.261898 0.934073
vt 0.575988 0.189125
vt 0.575988 0.253966
vt 0.519834 0.286386
vt 0.463680 0.253966
vt 0.463680 0.189125
vt 0.519834 0.156704
vt 0.327463 0.000362
vt 0.327463 0.934073
vt 0.262622 0.934073
vt 0.262622 0.000362
vt 0.000362 0.934073
vt 0.000362 0.000362
vt 0.065203 0.000362
vt 0.065203 0.934073
vt 0.575988 0.319530
vt 0.575988 0.384372
vt 0.519834 0.416792
vt 0.463680 0.384372
vt 0.463680 0.319530
vt 0.519834 0.287110
vt 0.677706 0.155980
vt 0.677706 0.000362
vt 0.755516 0.000362
vt 0.755515 0.155980
vt 0.463680 0.573135
vt 0.463680 0.417516
vt 0.541489 0.417516
vt 0.541489 0.573135
vt 0.777088 0.417516
vt 0.777088 0.573134
vt 0.699279 0.573134
vt 0.699279 0.417516
vt 0.620746 0.729477
vt 0.620746 0.573858
vt 0.698555 0.573858
vt 0.698555 0.729477
vt 0.328186 0.117076
vt 0.328186 0.039266
vt 0.395571 0.000362
vt 0.462956 0.039266
vt 0.462956 0.117076
vt 0.395571 0.155981
vt 0.542213 0.573135
vt 0.542213 0.417516
vt 0.620022 0.417516
vt 0.620022 0.573135
vt 0.655244 0.312323
vt 0.655244 0.156704
vt 0.733054 0.156704
vt 0.733054 0.312323
vt 0.462956 0.351951
vt 0.462956 0.429760
vt 0.395571 0.468665
vt 0.328186 0.429760
vt 0.328186 0.351951
vt 0.395571 0.313046
vn 0.5000 0.8660 0.0000
vn 1.0000 -0.0000 0.0000
vn 0.5000 -0.8660 0.0000
vn -0.5000 -0.8660 0.0000
vn -0.0000 0.0000 1.0000
vn -1.0000 0.0000 0.0000
vn -0.5000 0.8660 0.0000
vn 0.0000 0.0000 -1.0000
usemtl Material.001
s off
f 1/1/1 2/2/1 4/3/1 3/4/1
f 3/5/2 4/6/2 6/7/2 5/8/2
f 5/9/3 6/10/3 8/11/3 7/12/3
f 7/13/4 8/14/4 10/15/4 9/16/4
f 4/17/5 2/18/5 12/19/5 10/20/5 8/21/5 6/22/5
f 9/23/6 10/24/6 12/25/6 11/26/6
f 11/27/7 12/28/7 2/29/7 1/30/7
f 1/31/8 3/32/8 5/33/8 7/34/8 9/35/8 11/36/8
f 13/37/1 14/38/1 16/39/1 15/40/1
f 15/41/2 16/42/2 18/43/2 17/44/2
f 17/45/3 18/46/3 20/47/3 19/48/3
f 19/49/4 20/50/4 22/51/4 21/52/4
f 16/53/5 14/54/5 24/55/5 22/56/5 20/57/5 18/58/5
f 21/59/6 22/60/6 24/61/6 23/62/6
f 23/63/7 24/64/7 14/65/7 13/66/7
f 13/67/8 15/68/8 17/69/8 19/70/8 21/71/8 23/72/8
f 25/73/1 26/74/1 28/75/1 27/76/1
f 27/77/2 28/78/2 30/79/2 29/80/2
f 29/81/3 30/82/3 32/83/3 31/84/3
f 31/85/4 32/86/4 34/87/4 33/88/4
f 28/89/5 26/90/5 36/91/5 34/92/5 32/93/5 30/94/5
f 33/95/6 34/96/6 36/97/6 35/98/6
f 35/99/7 36/100/7 26/101/7 25/102/7
f 25/103/8 27/104/8 29/105/8 31/106/8 33/107/8 35/108/8
