# Blender v2.81 (sub 16) OBJ File: 'second floor.blend'
# www.blender.org
mtllib railing.mtl
v 41.788124 2.509772 -7.176115
v 53.400757 2.509772 -7.176115
v 37.011414 -0.095791 -7.176115
v 54.736954 2.509772 -5.929691
v 37.011414 -0.095791 -1.167509
v 42.026867 -2.736315 -1.167509
v 39.599998 1.343701 -7.176115
v 41.788124 3.909771 -7.176115
v 53.400757 3.909771 -7.176115
v 37.011414 1.304209 -7.176115
v 54.736954 3.909771 -5.929691
v 37.011414 1.304209 -1.167509
v 42.026867 -1.336315 -1.167509
v 39.599998 2.743701 -7.176115
v 41.788124 2.509771 7.176116
v 53.400757 2.509771 7.176116
v 37.011414 -0.095791 7.176114
v 54.736954 2.509771 5.929691
v 54.736954 2.509772 0.000000
v 37.011414 -0.095791 1.167509
v 42.026867 -2.736315 1.167509
v 39.599998 1.343701 7.176116
v 41.788124 3.909771 7.176116
v 53.400757 3.909771 7.176116
v 37.011414 1.304209 7.176116
v 54.736954 3.909771 5.929691
v 54.736954 3.909772 0.000000
v 37.011414 1.304209 1.167509
v 42.026867 -1.336316 1.167509
v 39.599998 2.743701 7.176116
vt -5.489586 0.030907
vt -5.489586 0.965348
vt -4.597730 0.965348
vt -4.597730 0.030907
vt 3.153219 0.030907
vt 3.153219 0.965348
vt 4.613703 0.965348
vt 4.613703 0.030907
vt 6.341475 0.965348
vt 6.341475 0.030907
vt 6.341475 0.030907
vt 6.341475 0.965348
vt 2.993868 0.965347
vt 2.993868 0.030906
vt 1.302100 0.030907
vt 1.302100 0.965348
vt 5.259922 0.965348
vt 5.259922 0.030907
vt 1.354773 0.030906
vt 1.354773 0.965347
vt -2.655721 0.965347
vt -2.655721 0.030906
vt -5.489586 0.030906
vt -4.597730 0.030906
vt -4.597730 0.965347
vt -5.489586 0.965347
vt 3.153219 0.030906
vt 4.613703 0.030907
vt 4.613703 0.965348
vt 3.153219 0.965347
vt 6.341475 0.030907
vt 6.341475 0.965348
vt 6.341475 0.030907
vt 2.993868 0.030906
vt 2.993868 0.965347
vt 6.341475 0.965348
vt -2.655721 0.030906
vt -2.655721 0.965347
vt -2.708393 0.030906
vt 1.302100 0.030906
vt 1.302100 0.965348
vt -2.708395 0.965348
vn -0.6821 0.0000 0.7312
vn 0.0000 0.0000 1.0000
vn -0.0000 0.0000 -1.0000
vn -1.0000 0.0000 0.0000
vn 1.0000 0.0000 0.0000
vn -0.6821 0.0000 -0.7312
usemtl Material.001
s off
f 4/1/1 11/2/1 9/3/1 2/4/1
f 1/5/2 8/6/2 14/7/2 7/8/2
f 7/8/2 14/7/2 10/9/2 3/10/2
f 5/11/3 12/12/3 13/13/3 6/14/3
f 19/15/4 27/16/4 11/17/4 4/18/4
f 3/19/5 10/20/5 12/21/5 5/22/5
f 2/4/2 9/3/2 8/6/2 1/5/2
f 18/23/6 16/24/6 24/25/6 26/26/6
f 15/27/3 22/28/3 30/29/3 23/30/3
f 22/28/3 17/31/3 25/32/3 30/29/3
f 20/33/2 21/34/2 29/35/2 28/36/2
f 19/15/4 18/37/4 26/38/4 27/16/4
f 17/39/5 20/40/5 28/41/5 25/42/5
f 16/24/3 15/27/3 23/30/3 24/25/3
