# Blender v2.81 (sub 16) OBJ File: 'skybox.blend'
# www.blender.org
mtllib railing2.mtl
v 54.736954 2.509772 -5.929691
v 54.736954 3.909771 -5.929691
v 53.400757 3.909771 -7.176115
v 53.400757 2.509772 -7.176115
v 41.788124 2.509772 -7.176115
v 41.788124 3.909771 -7.176115
v 39.599998 2.743701 -7.176115
v 39.599998 1.343701 -7.176115
v 37.011414 1.304209 -7.176115
v 37.011414 -0.095791 -7.176115
v 37.011414 -0.095791 -1.167509
v 37.011414 1.304209 -1.167509
v 42.026867 -1.336315 -1.167509
v 42.026867 -2.736315 -1.167509
v 54.736954 2.509772 0.000000
v 54.736954 3.909772 0.000000
v 54.736954 2.509771 5.929691
v 53.400757 2.509771 7.176116
v 53.400757 3.909771 7.176116
v 54.736954 3.909771 5.929691
v 41.788124 2.509771 7.176116
v 39.599998 1.343701 7.176116
v 39.599998 2.743701 7.176116
v 41.788124 3.909771 7.176116
v 37.011414 -0.095791 7.176114
v 37.011414 1.304209 7.176116
v 37.011414 -0.095791 1.167509
v 42.026867 -2.736315 1.167509
v 42.026867 -1.336316 1.167509
v 37.011414 1.304209 1.167509
vt -5.489586 0.030907
vt -4.597730 0.030907
vt -4.597730 0.965348
vt -5.489586 0.965348
vt 3.153219 0.030907
vt 4.613703 0.030907
vt 4.613703 0.965348
vt 3.153219 0.965348
vt 6.341475 0.030907
vt 6.341475 0.965348
vt 6.341475 0.030907
vt 2.993868 0.030906
vt 2.993868 0.965347
vt 6.341475 0.965348
vt 1.302100 0.030907
vt 5.259922 0.030907
vt 5.259922 0.965348
vt 1.302100 0.965348
vt 1.354773 0.030906
vt -2.655721 0.030906
vt -2.655721 0.965347
vt 1.354773 0.965347
vt -5.489586 0.030906
vt -5.489586 0.965347
vt -4.597730 0.965347
vt -4.597730 0.030906
vt 3.153219 0.030906
vt 3.153219 0.965347
vt 4.613703 0.965348
vt 4.613703 0.030907
vt 6.341475 0.965348
vt 6.341475 0.030907
vt 6.341475 0.030907
vt 6.341475 0.965348
vt 2.993868 0.965347
vt 2.993868 0.030906
vt -2.655721 0.965347
vt -2.655721 0.030906
vt -2.708393 0.030906
vt -2.708395 0.965348
vt 1.302100 0.965348
vt 1.302100 0.030906
vn 0.6821 0.0000 -0.7312
vn -0.0000 0.0000 -1.0000
vn -0.0000 -0.0000 1.0000
vn 1.0000 0.0000 0.0000
vn -1.0000 0.0000 0.0000
vn 0.6821 0.0000 0.7312
usemtl Material.001
s 1
f 1/1/1 4/2/1 3/3/1 2/4/1
f 5/5/2 8/6/2 7/7/2 6/8/2
f 8/6/2 10/9/2 9/10/2 7/7/2
f 11/11/3 14/12/3 13/13/3 12/14/3
f 15/15/4 1/16/4 2/17/4 16/18/4
f 10/19/5 11/20/5 12/21/5 9/22/5
f 4/2/2 5/5/2 6/8/2 3/3/2
f 17/23/6 20/24/6 19/25/6 18/26/6
f 21/27/3 24/28/3 23/29/3 22/30/3
f 22/30/3 23/29/3 26/31/3 25/32/3
f 27/33/2 30/34/2 29/35/2 28/36/2
f 15/15/4 16/18/4 20/37/4 17/38/4
f 25/39/5 26/40/5 30/41/5 27/42/5
f 18/26/3 19/25/3 24/28/3 21/27/3
