# Blender v2.81 (sub 16) OBJ File: 'spcaeship.blend'
# www.blender.org
mtllib safety_capsule_back.mtl
v -10.734217 1.308124 -1.422493
v -10.859586 -1.108954 -1.422493
v -9.869828 0.000000 -1.422493
v -10.859586 1.497851 -1.422493
v -12.964470 1.308123 -1.422493
v -11.849343 -1.108954 -1.422493
v -12.839101 -1.108954 -1.422493
v -13.828858 -0.000000 -1.422493
v -12.839101 1.497851 -1.422493
v -11.849343 1.497851 -1.422493
vt 0.001142 0.498858
vt 0.001142 0.250000
vt 0.279970 0.001142
vt 0.608875 0.218478
vt 0.656579 0.250000
vt 0.656579 0.498857
vt 0.656579 0.998858
vt 0.001142 0.998858
vt 0.001142 0.750000
vt 0.048846 0.718478
vt 0.377751 0.501142
vt 0.656579 0.750000
vn 0.0000 0.0000 1.0000
g Cylinder.005_Cylinder.005_Material.011
usemtl Material.011
s off
f 6/1/1 2/2/1 3/3/1 1/4/1 4/5/1 10/6/1
f 6/7/1 10/8/1 9/9/1 5/10/1 8/11/1 7/12/1
