# Blender v2.81 (sub 16) OBJ File: 'spcaeship.blend'
# www.blender.org
mtllib safety_capsule.mtl
v -10.453061 1.637939 -3.284855
v -10.453061 1.637939 -4.637708
v -10.610039 -1.486605 -1.932002
v -10.610039 -1.486605 -4.786489
v -9.370735 0.000000 -1.932002
v -9.370735 0.000000 -4.786489
v -10.610040 1.875503 -1.932002
v -10.610040 1.875503 -4.786489
v -10.734217 1.308124 -1.422493
v -11.312621 -0.423353 -8.290912
v -10.775899 0.000000 -8.290912
v -11.312622 0.812250 -8.290912
v -11.244637 0.709365 -8.290912
v -10.859586 -1.108954 -1.422493
v -9.869828 0.000000 -1.422493
v -10.859586 1.497851 -1.422493
v -10.610039 -1.486605 -4.637708
v -9.370735 0.000000 -4.637708
v -10.610040 1.875503 -4.637708
v -10.610039 -1.486605 -3.284855
v -9.370735 0.000000 -3.284855
v -10.610040 1.875503 -3.284855
v -10.453061 1.637939 -1.932002
v -11.186534 0.777523 -8.033684
v -11.261051 0.890294 -8.033684
v -9.911899 0.818970 -4.786489
v -10.556455 1.569618 -3.284855
v -10.556455 1.569618 -4.637708
v -10.660664 -1.380549 -1.971340
v -10.661185 -1.375432 -4.766921
v -9.474144 -0.056944 -1.969710
v -9.492544 -0.002500 -4.763812
v -10.666144 1.772525 -1.972078
v -10.668739 1.766357 -4.786489
v -10.778521 1.278850 -1.534468
v -11.342951 -0.349305 -8.196278
v -10.850702 0.061687 -8.213729
v -11.351245 0.738505 -8.199107
v -11.305050 0.669444 -8.190340
v -10.883879 -1.051298 -1.529468
v -9.926379 -0.048601 -1.521477
v -10.887884 1.441818 -1.529347
v -10.662592 -1.374373 -4.637708
v -9.479960 -0.058548 -4.637708
v -10.668739 1.766357 -4.637708
v -10.662592 -1.374373 -3.284855
v -9.479960 -0.058548 -3.284855
v -10.668739 1.766357 -3.284855
v -10.550448 1.573589 -1.973632
v -11.284587 0.712731 -7.994368
v -11.317065 0.788130 -7.991459
v -10.014603 0.751106 -4.772185
v -13.245625 1.637939 -3.284855
v -13.245625 1.637939 -4.637708
v -11.849343 -1.486605 -1.932001
v -11.849343 -1.486605 -4.786489
v -13.088647 -1.486605 -1.932002
v -13.088647 -1.486605 -4.786489
v -14.327951 -0.000000 -1.932002
v -14.327951 -0.000000 -4.786489
v -13.088647 1.875502 -1.932002
v -13.088647 1.875502 -4.786489
v -11.849343 1.875502 -1.932001
v -11.849343 1.875502 -4.786489
v -11.849343 -0.423353 -8.290912
v -12.964470 1.308123 -1.422493
v -12.386065 -0.423353 -8.290912
v -12.922789 -0.000000 -8.290912
v -12.386065 0.812250 -8.290912
v -11.849343 0.812250 -8.290912
v -12.454050 0.709365 -8.290912
v -11.849343 -1.108954 -1.422493
v -12.839101 -1.108954 -1.422493
v -13.828858 -0.000000 -1.422493
v -12.839101 1.497851 -1.422493
v -11.849343 1.497851 -1.422493
v -11.849343 -1.486605 -4.637708
v -13.088647 -1.486605 -4.637708
v -14.327951 -0.000000 -4.637708
v -13.088647 1.875502 -4.637708
v -11.849343 1.875502 -4.637708
v -11.849343 -1.486605 -3.284855
v -13.088647 -1.486605 -3.284855
v -14.327951 -0.000000 -3.284855
v -13.088647 1.875502 -3.284855
v -11.849343 1.875502 -3.284855
v -13.245625 1.637939 -1.932002
v -11.849343 0.000000 -1.932002
v -11.849343 0.000000 -4.786489
v -11.849343 0.000000 -8.290913
v -11.849343 0.000000 -1.422494
v -11.849343 0.000000 -4.637708
v -11.849343 0.000000 -3.284855
v -12.512153 0.777523 -8.033684
v -12.437635 0.890294 -8.033684
v -11.849343 0.890294 -8.033684
v -13.786789 0.818969 -4.786489
v -13.142233 1.569618 -3.284855
v -13.142233 1.569618 -4.637708
v -11.849343 -1.368927 -1.970856
v -11.849343 -1.364017 -4.768304
v -13.038023 -1.380549 -1.971340
v -13.037500 -1.375432 -4.766920
v -14.224543 -0.056944 -1.969710
v -14.206142 -0.002500 -4.763811
v -13.032542 1.772525 -1.972078
v -13.029948 1.766356 -4.786489
v -11.849343 1.757824 -1.970856
v -11.849343 1.751572 -4.786489
v -11.849343 -0.349533 -8.191369
v -12.920166 1.278849 -1.534468
v -12.355737 -0.349305 -8.196278
v -12.847984 0.061687 -8.213729
v -12.347442 0.738505 -8.199107
v -11.849343 0.738429 -8.191369
v -12.393638 0.669444 -8.190340
v -11.849343 -1.053220 -1.533182
v -12.814808 -1.051298 -1.529468
v -13.772307 -0.048601 -1.521477
v -12.810802 1.441818 -1.529347
v -11.849343 1.442117 -1.533182
v -11.849343 -1.362675 -4.637708
v -13.036094 -1.374373 -4.637708
v -14.218726 -0.058548 -4.637708
v -13.029948 1.766356 -4.637708
v -11.849343 1.751572 -4.637708
v -11.849343 -1.362675 -3.284855
v -13.036094 -1.374373 -3.284855
v -14.218726 -0.058548 -3.284855
v -13.029948 1.766356 -3.284855
v -11.849343 1.751572 -3.284855
v -13.148238 1.573589 -1.973632
v -11.849343 -0.123926 -1.422494
v -12.414100 0.712731 -7.994368
v -12.381621 0.788130 -7.991459
v -11.849343 0.771704 -7.997704
v -13.684084 0.751106 -4.772185
v -13.546715 -0.028276 -6.010520
v -13.106471 0.747201 -6.485889
v -12.998261 -0.028276 -7.516798
v -12.700227 0.653737 -7.516798
v -10.150975 -0.028276 -6.010520
v -10.591220 0.747201 -6.485889
v -10.699429 -0.028276 -7.516798
v -10.997463 0.653737 -7.516798
vt 4.963858 3.256507
vt 4.961861 3.120018
vt 5.862374 3.106841
vt 6.764893 3.230155
vt -4.370554 3.932709
vt -4.363781 3.794028
vt -3.221939 3.849053
vt -3.223687 3.984635
vt -1.461183 3.803441
vt -1.457992 3.945874
vt 7.024116 3.089842
vt 7.026113 3.226332
vt 7.062435 -0.224404
vt 6.553336 -0.045119
vt 6.516043 -0.293457
vt 6.980514 -0.457026
vt 2.562006 3.848683
vt 2.562006 3.712179
vt 3.699044 3.712179
vt 3.699044 3.848683
vt 5.000175 5.738687
vt 6.801215 5.712332
vt 6.699809 6.317602
vt 5.261426 6.338649
vt 7.062435 5.708509
vt 6.908429 6.314547
vt -3.351495 0.445993
vt -2.691420 0.406847
vt 6.429336 -0.043304
vt 6.402913 -0.291801
vt 5.622916 -0.280388
vt -3.853148 0.371154
vt 4.982015 4.497599
vt 6.783054 4.471244
vt -4.273127 6.518867
vt -3.223994 6.338255
vt -3.264318 6.920847
vt -4.162091 7.094132
vt 2.562006 6.331120
vt 3.699044 6.331120
vt 3.699044 6.912994
vt 2.790961 6.912994
vt -1.507569 6.482903
vt -1.884119 7.080256
vt 4.961861 6.956860
vt 4.961861 6.464427
vt 6.095504 6.464427
vt 6.095504 6.956860
vt 6.001109 7.019235
vt 5.350279 7.449293
vt 2.562006 5.089902
vt 3.699044 5.089902
vt 7.044274 4.467421
vt -3.224379 5.192082
vt -1.457992 5.220116
vt -4.380821 5.224484
vt 7.188213 1.805565
vt 7.655678 1.347657
vt 7.655678 3.621735
vt 7.188213 3.621735
vt 8.429432 -2.704551
vt 7.188213 -2.704551
vt 7.188213 -4.978628
vt 8.429432 -4.978627
vt -1.143042 5.045090
vt -1.279546 5.045090
vt -1.279546 2.771012
vt -1.143042 2.771012
vt -0.779015 1.660370
vt 2.436228 0.371158
vt 2.436228 2.645236
vt -0.779015 2.645236
vt 8.429432 -5.104405
vt 7.188213 -5.104405
vt 7.188213 -7.378483
vt 8.429432 -7.378483
vt 2.564902 -3.278441
vt 4.075982 -4.940055
vt 3.453074 -4.041855
vt 2.679194 -3.203838
vt 0.392763 -1.338183
vt 1.279451 -2.196204
vt 1.363714 -2.105071
vt 0.491123 -1.239674
vt 2.563068 -3.276301
vt 2.677507 -3.202418
vt 4.213976 -5.178434
vt 4.392197 -5.103601
vt 4.728008 0.174023
vt 4.530339 0.189222
vt 4.509420 -0.234027
vt 4.679206 -0.358605
vt 4.553364 -6.600599
vt 4.707309 -6.564360
vt 1.099323 -4.760031
vt 0.794194 -5.016644
vt 1.079023 -6.091239
vt 1.554799 -6.010550
vt 1.160159 -6.243890
vt 1.617488 -6.185461
vt 3.930873 -0.570745
vt 3.629037 -0.197315
vt 4.451797 -0.275596
vt 4.611059 -0.425065
vt 3.548810 0.245380
vt 2.618294 -5.675728
vt 1.784476 -4.109469
vt -1.233772 -4.211591
vt -1.132041 -4.965943
vt -0.088837 -4.718735
vt 0.056893 -4.265804
vt 0.743921 -7.123233
vt 1.426083 -7.378483
vt 1.093749 -4.753891
vt 2.696434 -5.870099
vt 3.012994 -7.116909
vt 0.485301 -3.231188
vt 1.770820 -4.094103
vt -0.618797 -2.636229
vt 4.836083 -6.535167
vt 4.513427 -5.044126
vt 2.651588 -5.546583
vt 1.940786 -4.120509
vt 3.840815 -4.861403
vt 2.525154 -3.460704
vt 2.332537 2.771013
vt 2.332537 4.587190
vt 2.218894 4.590832
vt 2.231367 2.822897
vt 4.710393 -0.491042
vt 4.791028 -0.407242
vt 4.836083 0.163471
vt 3.597923 -4.026917
vt 4.963859 -4.296354
vt 6.764892 -4.269997
vt 5.862378 -4.146685
vt 4.961861 -4.159863
vt -7.419162 3.532581
vt -6.272298 3.480657
vt -6.270551 3.616239
vt -7.412389 3.671262
vt -4.506599 3.519419
vt -4.509791 3.661854
vt 7.026111 -4.266173
vt 7.024112 -4.129683
vt 7.062436 -0.815426
vt 6.980514 -0.582803
vt 6.516041 -0.746375
vt 6.553336 -0.994713
vt 1.865784 2.907517
vt 0.728745 2.907517
vt 0.728745 2.771015
vt 1.865784 2.771013
vt 5.000180 -6.778524
vt 5.261432 -7.378483
vt 6.699811 -7.357434
vt 6.801216 -6.752167
vt 6.908432 -7.354382
vt 7.062436 -6.748344
vt -5.740038 7.058442
vt -6.400110 7.019296
vt 6.402912 -0.748029
vt 6.429335 -0.996527
vt 5.622913 -0.759445
vt -6.901761 7.094132
vt 6.783054 -5.511082
vt 4.982019 -5.537438
vt -7.321738 0.946423
vt -7.210700 0.371154
vt -6.312925 0.544443
vt -6.272603 1.127036
vt 1.865784 5.389955
vt 1.636829 5.971828
vt 0.728745 5.971828
vt 0.728745 5.389955
vt -4.932726 0.385037
vt -4.556175 0.982387
vt 6.713715 7.598069
vt 6.221282 7.209652
vt 6.651340 6.558822
vt 6.713715 6.464427
vt 7.206148 6.464427
vt 7.206148 7.598069
vt 1.865784 4.148736
vt 0.728745 4.148736
vt 7.044273 -5.507258
vt -6.272988 2.273208
vt -4.506599 2.245176
vt -7.429431 2.240806
vt 7.188213 5.563683
vt 7.188213 3.747513
vt 7.655678 3.747513
vt 7.655678 6.021590
vt 1.969963 6.097607
vt 1.969963 8.371683
vt 0.728745 8.371683
vt 0.728745 6.097607
vt -1.279546 2.645234
vt -1.279546 0.371158
vt -1.143042 0.371158
vt -1.143042 2.645234
vt 3.851218 0.371158
vt 4.836085 0.371158
vt 4.836083 3.586401
vt 2.562006 3.586402
vt 0.462203 6.012321
vt 0.462203 8.286399
vt -0.779015 8.286399
vt -0.779014 6.012321
vt -3.630805 -3.854721
vt -3.516511 -3.929320
vt -2.742618 -3.091309
vt -2.119687 -2.193112
vt -5.802897 -5.794971
vt -5.704535 -5.893479
vt -4.831944 -5.028066
vt -4.916210 -4.936930
vt -3.518198 -3.930740
vt -3.632640 -3.856860
vt -1.803468 -2.029570
vt -1.981688 -1.954732
vt -1.467620 -7.307084
vt -1.516439 -6.774479
vt -1.686214 -6.899056
vt -1.665282 -7.322290
vt -1.488325 -0.568802
vt -1.642270 -0.532561
vt -5.096339 -2.373110
vt -4.640885 -1.122584
vt -5.116668 -1.041896
vt -5.401485 -2.116508
vt -4.578195 -0.947669
vt -5.035531 -0.889242
vt -2.566577 -6.935788
vt -2.264752 -6.562359
vt -1.584584 -6.708023
vt -1.743837 -6.857491
vt -2.646796 -7.378483
vt -4.411143 -3.023616
vt -3.577362 -1.457415
vt -7.429431 -2.921593
vt -6.138769 -2.867364
vt -6.284508 -2.414434
vt -7.327714 -2.167242
vt -4.769608 0.245376
vt -5.451784 -0.009887
vt -5.101910 -2.379251
vt -3.499219 -1.263042
vt -3.182647 -0.016213
vt -5.710351 -3.901955
vt -4.424799 -3.038981
vt -6.814444 -4.496922
vt -0.926360 6.412086
vt -1.040064 6.412086
vt -1.034328 5.206515
vt -0.926360 5.170867
vt -1.359550 -0.597998
vt -1.682237 -2.089049
vt 7.445629 7.705648
vt 7.337660 7.670001
vt 7.331925 6.464427
vt 7.445629 6.464427
vt -3.544065 -1.586565
vt -4.254842 -3.012584
vt -2.354850 -2.271762
vt -0.904793 3.731124
vt -0.996120 3.663393
vt -1.017265 0.387847
vt -0.904793 0.371158
vt -3.670547 -3.672450
vt -1.171580 7.119737
vt -1.279546 7.084085
vt -1.273133 6.589001
vt -1.171580 6.537863
vt -0.932098 7.119737
vt -1.033652 7.068600
vt -1.040064 6.573515
vt -0.932098 6.537863
vt 2.542788 7.175277
vt 2.430315 7.158591
vt 2.429083 7.038771
vt 2.542788 7.038771
vt 2.303306 7.175277
vt 2.189603 7.175277
vt 2.189603 7.038771
vt 2.303306 7.038771
vt 4.698436 6.145654
vt 4.812140 6.145654
vt 4.812140 7.386872
vt 4.698436 7.386872
vt -1.165842 6.412086
vt -1.279546 6.412086
vt -1.279545 5.170867
vt -1.165842 5.170867
vt 2.093117 5.162714
vt 1.991562 5.111579
vt 1.991563 2.822148
vt 2.093117 2.771013
vt -1.017265 3.856902
vt -0.925936 3.924631
vt -0.925936 4.922817
vt -1.017265 4.990546
vt 2.332536 6.536425
vt 2.231364 6.484541
vt 2.218894 4.716609
vt 2.332536 4.720253
vt 2.436228 6.799293
vt 2.436228 6.912994
vt 2.257334 6.890620
vt 2.189603 6.799294
vt -1.485257 -6.642049
vt -1.404623 -6.725841
vt -1.359550 -7.296528
vt -2.597762 -3.106247
vt 4.572658 7.711391
vt 3.824822 7.163377
vt 3.896426 6.145654
vt 4.572658 6.240651
vt 7.813948 -0.469636
vt 7.188213 -0.743077
vt 7.188213 -2.305332
vt 7.813948 -2.578773
vt 7.936049 1.126883
vt 7.259818 1.221880
vt 7.188213 0.204157
vt 7.936049 -0.343859
vt 0.602968 3.274210
vt 0.602967 5.383347
vt -0.779015 5.886542
vt -0.779015 2.771013
vt 3.824822 5.647155
vt 3.824822 4.084900
vt 4.774540 3.712179
vt 4.774540 6.019876
vn 0.8343 0.5513 -0.0000
vn 0.0000 -1.0000 0.0000
vn 0.7681 -0.6403 0.0000
vn -0.0000 0.9569 -0.2903
vn -0.0000 1.0000 0.0000
vn 0.6460 0.4269 0.6328
vn 0.6968 -0.6479 -0.3078
vn 0.7912 0.5228 -0.3173
vn 0.7912 0.5228 -0.3172
vn 0.0000 -0.9569 -0.2903
vn 0.0000 -0.8034 0.5955
vn -0.0000 0.8034 0.5955
vn 0.5927 -0.5090 0.6241
vn 0.0000 0.0000 -1.0000
vn -0.8290 -0.5566 -0.0552
vn 0.0097 0.9999 -0.0092
vn -0.7416 0.6483 0.1721
vn -0.8428 -0.5338 -0.0698
vn 0.0160 -0.9795 0.2010
vn 0.0125 -0.9999 0.0000
vn -0.6468 -0.4253 -0.6331
vn -0.6671 -0.4033 -0.6263
vn -0.6948 0.6494 0.3090
vn -0.8600 -0.4593 0.2222
vn -0.7674 -0.5677 0.2979
vn 0.0069 0.9586 0.2848
vn -0.8344 -0.5512 0.0049
vn 0.0045 0.8070 -0.5906
vn 0.0061 -0.8068 -0.5908
vn -0.5689 0.5269 -0.6315
vn 0.0151 -0.0013 0.9999
vn -0.8685 -0.4957 0.0000
vn -0.7437 0.6685 0.0000
vn 0.0099 1.0000 0.0000
vn 0.0041 -0.0008 -1.0000
vn 0.0098 0.9999 0.0047
vn -0.7442 0.6680 0.0034
vn -0.8664 -0.4992 0.0048
vn 0.0125 -0.9999 0.0047
vn 0.5513 -0.8343 0.0000
vn -0.0000 -0.0000 1.0000
vn 0.0316 -0.5052 0.8624
vn 0.3157 0.1651 0.9344
vn -0.0102 0.3362 0.9417
vn -0.0471 -0.0377 -0.9982
vn -0.5058 0.8418 0.1886
vn -0.8343 0.5513 0.0000
vn -0.7681 -0.6403 0.0000
vn -0.6460 0.4269 0.6328
vn -0.6968 -0.6479 -0.3078
vn -0.7912 0.5228 -0.3173
vn -0.5927 -0.5090 0.6241
vn 0.8290 -0.5566 -0.0552
vn -0.0097 0.9999 -0.0092
vn 0.7416 0.6483 0.1721
vn 0.8428 -0.5338 -0.0698
vn -0.0160 -0.9795 0.2010
vn -0.0125 -0.9999 0.0000
vn 0.6468 -0.4253 -0.6331
vn 0.6671 -0.4033 -0.6263
vn 0.6948 0.6494 0.3090
vn 0.8600 -0.4594 0.2222
vn 0.7674 -0.5677 0.2979
vn -0.0069 0.9586 0.2848
vn 0.8344 -0.5512 0.0049
vn -0.0045 0.8070 -0.5906
vn -0.0061 -0.8068 -0.5908
vn 0.5689 0.5269 -0.6315
vn -0.0151 -0.0013 0.9999
vn 0.8685 -0.4957 0.0000
vn 0.7437 0.6685 0.0000
vn -0.0099 1.0000 0.0000
vn -0.0041 -0.0008 -1.0000
vn -0.0098 0.9999 0.0047
vn 0.7442 0.6680 0.0034
vn 0.8664 -0.4992 0.0048
vn -0.0125 -0.9999 0.0047
vn 1.0000 -0.0000 0.0000
vn -0.5513 -0.8343 0.0000
vn -0.0316 -0.5052 0.8624
vn -0.3157 0.1651 0.9344
vn 0.0102 0.3362 0.9417
vn 0.0471 -0.0377 -0.9982
vn 0.5058 0.8418 0.1886
vn -0.8784 0.3331 -0.3428
vn 0.8784 0.3331 -0.3428
vn -0.0000 0.9959 -0.0903
g Cylinder.001_Cylinder_Material.001
usemtl Material.001
s off
f 18/1/1 6/2/1 26/3/1 2/4/1
f 77/5/2 56/6/2 4/7/2 17/8/2
f 17/8/3 4/7/3 6/9/3 18/10/3
f 2/4/1 26/3/1 8/11/1 19/12/1
f 96/13/4 25/14/4 12/15/4 70/16/4
f 19/17/5 8/18/5 64/19/5 81/20/5
f 5/21/6 23/22/6 9/23/6 15/24/6
f 23/22/6 7/25/6 16/26/6 9/23/6
f 6/9/7 4/7/7 10/27/7 11/28/7
f 25/14/8 24/29/8 13/30/8 12/15/8
f 26/3/9 6/2/9 11/31/9 13/30/9 24/29/9
f 4/7/10 56/6/10 65/32/10 10/27/10
f 5/21/1 21/33/1 1/34/1 23/22/1
f 55/35/11 3/36/11 14/37/11 72/38/11
f 7/39/12 63/40/12 76/41/12 16/42/12
f 3/36/13 5/43/13 15/44/13 14/37/13
f 10/45/14 65/46/14 70/47/14 12/48/14 13/49/14 11/50/14
f 22/51/5 19/17/5 81/20/5 86/52/5
f 1/34/1 2/4/1 19/12/1 22/53/1
f 20/54/3 17/8/3 18/10/3 21/55/3
f 82/56/2 77/5/2 17/8/2 20/54/2
f 55/35/2 82/56/2 20/54/2 3/36/2
f 3/36/3 20/54/3 21/55/3 5/43/3
f 23/22/1 1/34/1 22/53/1 7/25/1
f 7/39/5 22/51/5 86/52/5 63/40/5
f 15/57/5 5/58/5 88/59/5 91/60/5
f 21/61/5 18/62/5 92/63/5 93/64/5
f 18/65/5 6/66/5 89/67/5 92/68/5
f 11/69/2 6/70/2 89/71/2 90/72/2
f 5/73/5 21/74/5 93/75/5 88/76/5
f 44/77/15 28/78/15 52/79/15 32/80/15
f 122/81/16 43/82/16 30/83/16 101/84/16
f 43/82/17 44/85/17 32/86/17 30/83/17
f 28/78/18 45/87/18 34/88/18 52/79/18
f 136/89/19 115/90/19 38/91/19 51/92/19
f 45/87/20 126/93/20 109/94/20 34/88/20
f 31/95/21 41/96/21 35/97/21 49/98/21
f 49/98/22 35/97/22 42/99/22 33/100/22
f 32/86/23 37/101/23 36/102/23 30/83/23
f 51/92/24 38/91/24 39/103/24 50/104/24
f 52/79/25 50/104/25 39/103/25 37/101/25 32/80/25
f 30/83/26 36/102/26 110/105/26 101/84/26
f 31/95/27 49/98/27 27/106/27 47/107/27
f 100/108/28 117/109/28 40/110/28 29/111/28
f 33/100/29 42/99/29 121/112/29 108/113/29
f 29/111/30 40/110/30 41/96/30 31/114/30
f 36/102/31 37/101/31 39/103/31 38/91/31 115/90/31 110/105/31
f 48/115/20 131/116/20 126/93/20 45/87/20
f 27/106/32 48/115/32 45/87/32 28/78/32
f 46/117/33 47/118/33 44/85/33 43/82/33
f 127/119/34 46/117/34 43/82/34 122/81/34
f 117/109/35 121/112/35 42/99/35 35/97/35 41/96/35 40/110/35
f 100/108/36 29/111/36 46/117/36 127/119/36
f 29/111/37 31/114/37 47/118/37 46/117/37
f 49/98/38 33/100/38 48/115/38 27/106/38
f 33/100/39 108/113/39 131/116/39 48/115/39
f 64/120/14 8/121/14 34/88/14 109/94/14
f 1/122/14 21/123/14 47/107/14 27/106/14
f 2/124/40 1/122/40 27/106/40 28/78/40
f 18/125/41 2/124/41 28/78/41 44/77/41
f 15/126/42 91/127/42 133/128/42 41/129/42
f 24/130/43 25/131/43 51/92/43 50/104/43
f 25/131/44 96/132/44 136/89/44 51/92/44
f 8/121/45 26/133/45 52/79/45 34/88/45
f 26/133/46 24/130/46 50/104/46 52/79/46
f 79/134/47 54/135/47 97/136/47 60/137/47
f 77/138/2 78/139/2 58/140/2 56/141/2
f 78/139/48 79/142/48 60/143/48 58/140/48
f 54/135/47 80/144/47 62/145/47 97/136/47
f 96/146/4 70/147/4 69/148/4 95/149/4
f 80/150/5 81/151/5 64/152/5 62/153/5
f 59/154/49 74/155/49 66/156/49 87/157/49
f 87/157/49 66/156/49 75/158/49 61/159/49
f 60/143/50 68/160/50 67/161/50 58/140/50
f 95/149/51 69/148/51 71/162/51 94/163/51
f 97/136/51 94/163/51 71/162/51 68/164/51 60/137/51
f 58/140/10 67/161/10 65/165/10 56/141/10
f 59/154/47 87/157/47 53/166/47 84/167/47
f 55/168/11 72/169/11 73/170/11 57/171/11
f 61/172/12 75/173/12 76/174/12 63/175/12
f 57/171/52 73/170/52 74/176/52 59/177/52
f 67/178/14 68/179/14 71/180/14 69/181/14 70/182/14 65/183/14
f 85/184/5 86/185/5 81/151/5 80/150/5
f 53/166/47 85/186/47 80/144/47 54/135/47
f 83/187/48 84/188/48 79/142/48 78/139/48
f 82/189/2 83/187/2 78/139/2 77/138/2
f 55/168/2 57/171/2 83/187/2 82/189/2
f 57/171/48 59/177/48 84/188/48 83/187/48
f 87/157/47 61/159/47 85/186/47 53/166/47
f 61/172/5 63/175/5 86/185/5 85/184/5
f 74/190/5 91/191/5 88/192/5 59/193/5
f 84/194/5 93/195/5 92/196/5 79/197/5
f 79/198/5 92/199/5 89/200/5 60/201/5
f 68/202/2 90/203/2 89/204/2 60/205/2
f 59/206/5 88/207/5 93/208/5 84/209/5
f 124/210/53 105/211/53 137/212/53 99/213/53
f 122/214/54 101/215/54 103/216/54 123/217/54
f 123/217/55 103/216/55 105/218/55 124/219/55
f 99/213/56 137/212/56 107/220/56 125/221/56
f 136/222/57 135/223/57 114/224/57 115/225/57
f 125/221/58 107/220/58 109/226/58 126/227/58
f 104/228/59 132/229/59 111/230/59 119/231/59
f 132/229/60 106/232/60 120/233/60 111/230/60
f 105/218/61 103/216/61 112/234/61 113/235/61
f 135/223/62 134/236/62 116/237/62 114/224/62
f 137/212/63 105/211/63 113/235/63 116/237/63 134/236/63
f 103/216/64 101/215/64 110/238/64 112/234/64
f 104/228/65 129/239/65 98/240/65 132/229/65
f 100/241/66 102/242/66 118/243/66 117/244/66
f 106/232/67 108/245/67 121/246/67 120/233/67
f 102/242/68 104/247/68 119/231/68 118/243/68
f 112/234/69 110/238/69 115/225/69 114/224/69 116/237/69 113/235/69
f 130/248/58 125/221/58 126/227/58 131/249/58
f 98/240/70 99/213/70 125/221/70 130/248/70
f 128/250/71 123/217/71 124/219/71 129/251/71
f 127/252/72 122/214/72 123/217/72 128/250/72
f 117/244/73 118/243/73 119/231/73 111/230/73 120/233/73 121/246/73
f 100/241/74 127/252/74 128/250/74 102/242/74
f 102/242/75 128/250/75 129/251/75 104/247/75
f 132/229/76 98/240/76 130/248/76 106/232/76
f 106/232/77 130/248/77 131/249/77 108/245/77
f 82/253/78 127/254/78 100/255/78 55/256/78
f 64/257/14 109/226/14 107/220/14 62/258/14
f 63/259/78 108/260/78 131/261/78 86/262/78
f 53/263/14 98/240/14 129/239/14 84/264/14
f 54/265/79 99/213/79 98/240/79 53/263/79
f 65/266/78 110/267/78 101/268/78 56/269/78
f 79/270/41 124/210/41 99/213/41 54/265/41
f 55/271/78 100/272/78 117/273/78 72/274/78
f 76/275/78 121/276/78 108/277/78 63/278/78
f 56/279/78 101/280/78 122/281/78 77/282/78
f 81/283/78 126/284/78 109/285/78 64/286/78
f 77/287/78 122/288/78 127/289/78 82/290/78
f 86/291/78 131/292/78 126/293/78 81/294/78
f 72/295/78 117/296/78 121/297/78 76/298/78
f 70/299/78 115/300/78 110/301/78 65/302/78
f 74/303/80 119/304/80 133/305/80 91/306/80
f 96/307/78 136/308/78 115/309/78 70/310/78
f 94/311/81 134/236/81 135/223/81 95/312/81
f 95/312/82 135/223/82 136/222/82 96/313/82
f 62/258/83 107/220/83 137/212/83 97/314/83
f 97/314/84 137/212/84 134/236/84 94/311/84
f 138/315/85 139/316/85 141/317/85 140/318/85
f 140/319/14 141/320/14 145/321/14 144/322/14
f 144/323/86 145/324/86 143/325/86 142/326/86
f 140/327/2 144/328/2 142/329/2 138/330/2
f 145/331/87 141/332/87 139/333/87 143/334/87
