# Blender v2.81 (sub 16) OBJ File: 'spcaeship.blend'
# www.blender.org
mtllib safety_capsule_control_panel_back.mtl
v -10.660664 -1.380549 -1.971340
v -9.474144 -0.056944 -1.969710
v -10.666144 1.772525 -1.972078
v -10.550448 1.573589 -1.973632
v -11.849343 -1.368927 -1.970856
v -13.038023 -1.380549 -1.971340
v -14.224543 -0.056944 -1.969710
v -13.032542 1.772525 -1.972078
v -11.849343 1.757824 -1.970856
v -13.148238 1.573589 -1.973632
vt 0.661040 0.500000
vt 0.003904 0.500000
vt 0.000813 0.251332
vt 0.042624 0.227016
vt 0.385307 0.000813
vt 0.663483 0.250180
vt 0.663483 0.749820
vt 0.385307 0.999187
vt 0.042624 0.772984
vt 0.000813 0.748668
vn -0.0002 -0.0003 -1.0000
vn 0.0002 -0.0003 -1.0000
g Cylinder.002_Cylinder.002_Material.005
usemtl Material.005
s off
f 5/1/1 9/2/1 3/3/1 4/4/1 2/5/1 1/6/1
f 5/1/2 6/7/2 7/8/2 10/9/2 8/10/2 9/2/2
